<svg width="32" height="32" viewBox="0 0 36 36" xmlns="http://www.w3.org/2000/svg">
  <rect width="36" height="36" rx="4" fill="#0d1410"/>
  <path d="M2,18 Q18,4 34,18 Q18,32 2,18 Z" fill="#3a7d44" fill-opacity="0.15" stroke="#3a7d44" stroke-width="1.5" stroke-linejoin="round"/>
  <circle cx="18" cy="18" r="9" fill="none" stroke="#3a7d44" stroke-width="1.2"/>
  <circle cx="18" cy="18" r="5.5" fill="#3a7d44" fill-opacity="0.2" stroke="#4e9e5a" stroke-width="1.2"/>
  <circle cx="18" cy="18" r="2.5" fill="#6bbf78"/>
  <circle cx="20" cy="16" r="1" fill="#6bbf78" opacity="0.5"/>
  <line x1="18" y1="7"  x2="18" y2="11" stroke="#6bbf78" stroke-width="1" stroke-linecap="round"/>
  <line x1="18" y1="25" x2="18" y2="29" stroke="#6bbf78" stroke-width="1" stroke-linecap="round"/>
  <line x1="7"  y1="18" x2="11" y2="18" stroke="#6bbf78" stroke-width="1" stroke-linecap="round"/>
  <line x1="25" y1="18" x2="29" y2="18" stroke="#6bbf78" stroke-width="1" stroke-linecap="round"/>
  <path d="M3,9 L3,5 L7,5"    fill="none" stroke="#6bbf78" stroke-width="1" stroke-linecap="round"/>
  <path d="M33,9 L33,5 L29,5"  fill="none" stroke="#6bbf78" stroke-width="1" stroke-linecap="round"/>
  <path d="M3,27 L3,31 L7,31"  fill="none" stroke="#6bbf78" stroke-width="1" stroke-linecap="round"/>
  <path d="M33,27 L33,31 L29,31" fill="none" stroke="#6bbf78" stroke-width="1" stroke-linecap="round"/>
</svg>
