<svg width="1200" height="630" viewBox="0 0 1200 630" xmlns="http://www.w3.org/2000/svg">
  <rect width="1200" height="630" fill="#0d1410"/>
  <line x1="0" y1="315" x2="1200" y2="315" stroke="#1e3022" stroke-width="0.5" opacity="0.5"/>
  <rect x="0" y="0" width="1200" height="5" fill="#3a7d44"/>
  <rect x="0" y="625" width="1200" height="5" fill="#253d2a"/>
  <path d="M160,315 Q360,130 560,315 Q360,500 160,315 Z" fill="#3a7d44" fill-opacity="0.1" stroke="#3a7d44" stroke-width="3" stroke-linejoin="round"/>
  <circle cx="360" cy="315" r="110" fill="none" stroke="#3a7d44" stroke-width="2" stroke-dasharray="6,6"/>
  <circle cx="360" cy="315" r="72" fill="none" stroke="#4e9e5a" stroke-width="3"/>
  <circle cx="360" cy="315" r="40" fill="#3a7d44" fill-opacity="0.2" stroke="#6bbf78" stroke-width="2"/>
  <circle cx="360" cy="315" r="18" fill="#6bbf78"/>
  <circle cx="374" cy="300" r="7" fill="#6bbf78" opacity="0.5"/>
  <line x1="360" y1="200" x2="360" y2="262" stroke="#6bbf78" stroke-width="2" stroke-linecap="round"/>
  <line x1="360" y1="368" x2="360" y2="430" stroke="#6bbf78" stroke-width="2" stroke-linecap="round"/>
  <line x1="245" y1="315" x2="307" y2="315" stroke="#6bbf78" stroke-width="2" stroke-linecap="round"/>
  <line x1="413" y1="315" x2="475" y2="315" stroke="#6bbf78" stroke-width="2" stroke-linecap="round"/>
  <path d="M158,188 L158,160 L186,160" fill="none" stroke="#6bbf78" stroke-width="2.5" stroke-linecap="round"/>
  <path d="M562,188 L562,160 L534,160" fill="none" stroke="#6bbf78" stroke-width="2.5" stroke-linecap="round"/>
  <path d="M158,442 L158,470 L186,470" fill="none" stroke="#6bbf78" stroke-width="2.5" stroke-linecap="round"/>
  <path d="M562,442 L562,470 L534,470" fill="none" stroke="#6bbf78" stroke-width="2.5" stroke-linecap="round"/>
  <line x1="640" y1="100" x2="640" y2="530" stroke="#253d2a" stroke-width="1"/>
  <text x="680" y="230" font-family="Arial Narrow, Arial, sans-serif" font-weight="900" font-size="72" fill="#ffffff" letter-spacing="4">UNMANNED</text>
  <text x="680" y="310" font-family="Arial Narrow, Arial, sans-serif" font-weight="300" font-size="72" fill="#6bbf78" letter-spacing="4">SYSTEMS</text>
  <text x="680" y="390" font-family="Arial Narrow, Arial, sans-serif" font-weight="900" font-size="72" fill="#ffffff" letter-spacing="4">TRACKER</text>
  <line x1="680" y1="418" x2="1140" y2="418" stroke="#253d2a" stroke-width="1"/>
  <text x="680" y="448" font-family="Courier New, monospace" font-size="20" fill="#526650" letter-spacing="2">OPEN-SOURCE · USV · UGV · UAV · 2022–PRESENT</text>
  <text x="680" y="510" font-family="Courier New, monospace" font-size="22" fill="#3a7d44" letter-spacing="1">unmannedsystemstracker.com</text>
</svg>
